<svg xmlns="http://www.w3.org/2000/svg" width="212" height="212" fill="none"><g filter="url(#a)"><rect width="196" height="196" x="8" y="4" fill="url(#b)" rx="48"/><rect width="194.5" height="194.5" x="8.75" y="4.75" stroke="#fff" stroke-opacity=".01" stroke-width="1.5" rx="47.25"/></g><rect width="80" height="12" x="73.473" y="100.586" fill="url(#c)" rx="6" style="mix-blend-mode:lighten" transform="rotate(-45 73.473 100.586)"/><rect width="47" height="12" x="99.636" y="99.879" fill="url(#d)" rx="6" style="mix-blend-mode:lighten" transform="rotate(-45 99.636 99.879)"/><rect width="41" height="12" x="72.766" y="126.749" fill="url(#e)" rx="6" style="mix-blend-mode:lighten" transform="rotate(-45 72.766 126.749)"/><rect width="86" height="12" x="73.473" y="151.497" fill="url(#f)" rx="6" style="mix-blend-mode:lighten" transform="rotate(-45 73.473 151.497)"/><defs><linearGradient id="b" x1="8" x2="204" y1="4" y2="200" gradientUnits="userSpaceOnUse"><stop stop-color="#111321"/><stop offset="1" stop-color="#421B75"/></linearGradient><linearGradient id="c" x1="82.973" x2="153.473" y1="106.586" y2="106.586" gradientUnits="userSpaceOnUse"><stop stop-color="#5B3290" stop-opacity="0"/><stop offset="1" stop-color="#5B3290"/></linearGradient><linearGradient id="d" x1="106.136" x2="146.636" y1="105.879" y2="105.879" gradientUnits="userSpaceOnUse"><stop stop-color="#5B3290" stop-opacity="0"/><stop offset="1" stop-color="#5B3290"/></linearGradient><linearGradient id="e" x1="79.398" x2="113.766" y1="132.749" y2="132.749" gradientUnits="userSpaceOnUse"><stop stop-color="#5B3290" stop-opacity="0"/><stop offset="1" stop-color="#5B3290"/></linearGradient><linearGradient id="f" x1="80.973" x2="159.473" y1="157.497" y2="157.497" gradientUnits="userSpaceOnUse"><stop stop-color="#5B3290" stop-opacity="0"/><stop offset="1" stop-color="#5B3290"/></linearGradient><filter id="a" width="212" height="212" x="0" y="0" color-interpolation-filters="sRGB" filterUnits="userSpaceOnUse"><feFlood flood-opacity="0" result="BackgroundImageFix"/><feColorMatrix in="SourceAlpha" result="hardAlpha" values="0 0 0 0 0 0 0 0 0 0 0 0 0 0 0 0 0 0 127 0"/><feMorphology in="SourceAlpha" radius="1" result="effect1_dropShadow_101_2"/><feOffset dy="4"/><feGaussianBlur stdDeviation="4.5"/><feComposite in2="hardAlpha" operator="out"/><feColorMatrix values="0 0 0 0 0 0 0 0 0 0 0 0 0 0 0 0 0 0 0.25 0"/><feBlend in2="BackgroundImageFix" result="effect1_dropShadow_101_2"/><feBlend in="SourceGraphic" in2="effect1_dropShadow_101_2" result="shape"/></filter></defs></svg>